<?xml version="1.0" encoding="UTF-8" standalone="no"?>
<svg
   width="16"
   height="16"
   version="1.1"
   id="svg1"
   xmlns="http://www.w3.org/2000/svg"
   xmlns:svg="http://www.w3.org/2000/svg">
  <defs
     id="defs1" />
  <path
     fill="#e0e0e0"
     d="M 3,1 A 1,1 0 0 0 2,2 C 2,3.5 2.967,4.625 3.873,5.66 4.633,6.53 5.289,7.303 5.748,8 5.289,8.697 4.634,9.472 3.873,10.342 2.967,11.377 2,12.5 2,14 a 1,1 0 0 0 1,1 h 10 a 1,1 0 0 0 1,-1 C 14,12.5 13.033,11.377 12.127,10.342 11.367,9.472 10.711,8.697 10.252,8 10.711,7.303 11.366,6.53 12.127,5.66 13.033,4.625 14,3.5 14,2 A 1,1 0 0 0 13,1 Z m 8.412,2 C 11.174,3.44 11.107,3.79 10.623,4.342 9.779,5.306 8.725,6.314 8.105,7.552 A 1,1 0 0 0 8,8 1,1 0 0 0 7.894,7.553 C 7.275,6.314 6.221,5.306 5.377,4.342 4.893,3.789 4.826,3.441 4.587,3 Z"
     id="path1" />
  <path
     fill="#e0e0e0"
     d="M 2.7710154,4.2057845 A 0.77101539,0.77101539 0 0 0 2,4.9767998 C 2,6.1333229 2.7455719,7.0007153 3.4441118,7.7987162 4.0300835,8.4694995 4.5358696,9.0654945 4.8897657,9.6028922 4.5358696,10.14029 4.0308545,10.737826 3.4441118,11.40861 2.7455719,12.206611 2,13.072461 2,14.228985 A 0.77101539,0.77101539 0 0 0 2.7710154,15 h 7.7101536 a 0.77101539,0.77101539 0 0 0 0.771015,-0.771015 c 0,-1.156524 -0.745571,-2.022374 -1.4441109,-2.820375 C 9.2221013,10.737826 8.7163152,10.14029 8.3624191,9.6028922 8.7163152,9.0654945 9.2213303,8.4694995 9.8080731,7.7987162 10.506613,7.0007153 11.252184,6.1333229 11.252184,4.9767998 A 0.77101539,0.77101539 0 0 0 10.481169,4.2057845 Z M 9.2567969,5.7478152 C 9.0732953,6.087062 9.0216373,6.3569174 8.6484658,6.7825179 7.9977288,7.5257767 7.1850786,8.3029603 6.707049,9.2574773 A 0.77101539,0.77101539 0 0 0 6.6260923,9.6028922 0.77101539,0.77101539 0 0 0 6.5443647,9.2582483 C 6.0671062,8.3029603 5.254456,7.5257767 4.603719,6.7825179 4.2305475,6.3561464 4.1788895,6.087833 3.9946168,5.7478152 Z"
     id="path1-8"
     style="fill:#a2a2a2;fill-opacity:1;stroke-width:0.771015" />
  <path
     fill="#e0e0e0"
     d="M 7.8026683,7.1124868 A 0.56339379,0.56339379 0 0 0 7.2392744,7.6758807 c 0,0.8450907 0.5448019,1.4789087 1.0552367,2.0620213 0.4281793,0.490153 0.7977656,0.925656 1.0563633,1.318342 -0.2585977,0.392685 -0.6276207,0.829316 -1.0563633,1.319467 -0.5104348,0.583113 -1.0552367,1.215804 -1.0552367,2.060895 A 0.56339379,0.56339379 0 0 0 7.8026683,15 H 13.436606 A 0.56339379,0.56339379 0 0 0 14,14.436606 C 14,13.591515 13.455198,12.958824 12.944763,12.375711 12.516584,11.88556 12.146998,11.448929 11.8884,11.056244 12.146998,10.663558 12.516021,10.228055 12.944763,9.737902 13.455198,9.1547894 14,8.5209714 14,7.6758807 A 0.56339379,0.56339379 0 0 0 13.436606,7.1124868 Z m 4.7392677,1.1267876 c -0.134087,0.2478934 -0.171834,0.4450811 -0.444518,0.7560746 -0.475503,0.5431116 -1.06932,1.111013 -1.418625,1.808494 a 0.56339379,0.56339379 0 0 0 -0.05915,0.252401 0.56339379,0.56339379 0 0 0 -0.05972,-0.251837 C 10.211176,10.106362 9.6173597,9.5384606 9.1418553,8.995349 8.8691727,8.6837922 8.8314253,8.4877311 8.6967742,8.2392744 Z"
     id="path1-1"
     style="fill:#b5b5b5;fill-opacity:1;stroke-width:0.563394" />
</svg>
